<?xml version="1.0" encoding="UTF-8" standalone="no"?>
<!DOCTYPE svg PUBLIC "-//W3C//DTD SVG 1.1//EN" "http://www.w3.org/Graphics/SVG/1.1/DTD/svg11.dtd">
<svg version="1.1" xmlns="http://www.w3.org/2000/svg" xmlns:xlink="http://www.w3.org/1999/xlink" preserveAspectRatio="xMidYMid meet" viewBox="139.57558139534882 223.51316024012874 360.8488372093023 238.34390196928126" width="352.85" height="230.34"><defs><path d="M489.09 227.51C493.14 227.51 496.42 230.8 496.42 234.84C496.42 279.45 496.42 405.92 496.42 450.53C496.42 454.58 493.14 457.86 489.09 457.86C419.99 457.86 220.01 457.86 150.91 457.86C146.86 457.86 143.58 454.58 143.58 450.53C143.58 405.92 143.58 279.45 143.58 234.84C143.58 230.8 146.86 227.51 150.91 227.51C220.01 227.51 419.99 227.51 489.09 227.51Z" id="ajKnOVsXX"></path><path d="M311.54 406.19L311.54 406.19L311.54 454.22L311.54 454.22L311.54 406.19Z" id="b4CPgorQF4"></path><path d="" id="d1Fq0mzX"></path><path d="" id="e6ZAZjsaT"></path><path d="M320 274.73L320 329.77" id="c1RU7AELm"></path><path d="M320 325.25C320 326.91 320 328.26 320 328.26C320 328.26 320 326.91 320 325.25C320 323.6 320 322.25 320 322.25C320 322.85 320 323.6 320 325.25Z" id="a3zkSEg5gj"></path><path d="M327.29 265.22C327.29 269.35 324.03 272.72 320 272.72C315.97 272.72 312.71 269.35 312.71 265.22C312.71 261.08 315.97 257.72 320 257.72C324.03 257.72 327.29 261.08 327.29 265.22Z" id="bf0GEPRAc"></path><path d="M377.54 274.73L377.54 283.72L361.03 283.72L361.03 329.77" id="afRM52XPk"></path><path d="M262.45 274.73L262.45 283.72L278.96 283.72L278.96 329.77" id="b3UQVyAR5G"></path><path d="M384.84 265.22C384.84 269.35 381.57 272.72 377.54 272.72C373.52 272.72 370.25 269.35 370.25 265.22C370.25 261.08 373.52 257.72 377.54 257.72C381.57 257.72 384.84 261.08 384.84 265.22Z" id="btOA580fy"></path><path d="M269.75 265.22C269.75 269.35 266.48 272.72 262.45 272.72C258.42 272.72 255.16 269.35 255.16 265.22C255.16 261.08 258.42 257.72 262.45 257.72C266.48 257.72 269.75 261.08 269.75 265.22Z" id="g34qFfBIDw"></path><path d="M426.59 332.68C432.11 332.68 436.59 337.15 436.59 342.68C436.59 359.29 436.59 399.13 436.59 415.75C436.59 421.27 432.11 425.75 426.59 425.75C381.95 425.75 258.05 425.75 213.41 425.75C207.89 425.75 203.41 421.27 203.41 415.75C203.41 399.13 203.41 359.29 203.41 342.68C203.41 337.15 207.89 332.68 213.41 332.68C258.05 332.68 381.95 332.68 426.59 332.68Z" id="b2fJ32k1rm"></path><path d="M222.93 348.27L222.93 348.27L219.43 348.27L222.93 348.27Z" id="a76QWlISC"></path><path d="M255.16 348.27L221.18 348.27" id="gaQmYwgtp"></path><path d="M299.68 348.27L265.7 348.27" id="a3c85QEvQ3"></path><path d="M255.16 379.21L221.18 379.21" id="aJRU6Mrq7"></path><path d="M394.53 362.27L360.55 362.27" id="f7nf7SypeE"></path><path d="M274.47 363.75L240.49 363.75" id="e3F9sqBRms"></path><path d="M255.16 409.27L221.18 409.27" id="a3hcQnzdMD"></path><path d="M321.5 348.27L311.54 348.27" id="f45WgR1u3X"></path><path d="M312.71 379.21L302.74 379.21" id="a4k4SoU3K"></path><path d="M299.68 393.8L289.72 393.8" id="d165VHb0zA"></path><path d="M292.65 379.21L282.69 379.21" id="b2xKhJOsid"></path><path d="M406.48 348.27L396.52 348.27" id="dVdTHCpcU"></path><path d="M231.14 363.77L221.18 363.77" id="bjfmfc0PE"></path><path d="M274.73 379.21L264.77 379.21" id="i7NoQ5i33"></path><path d="M317.69 393.8L307.72 393.8" id="arXysZ6qY"></path><path d="M278.96 393.8L221.18 393.8" id="i1HiJEO5S0"></path><path d="M338.99 363.77L281.2 363.77" id="bO31M7dQm"></path><path d="M321.5 409.27L263.72 409.27" id="d1VxfX6Pot"></path><path d="M384.37 393.8L326.59 393.8" id="a67VWj4pzL"></path><path d="M381.01 379.21L323.22 379.21" id="d1k4JjMr2G"></path><path d="M389.45 348.27L331.66 348.27" id="bp52M6zNx"></path><path d="M363.22 409.27L329.24 409.27" id="e2FIw40pl9"></path><path d="M408.53 409.27L374.55 409.27" id="bKMTqMkh"></path></defs><g><g><g><use xlink:href="#ajKnOVsXX" opacity="1" fill-opacity="0" stroke="#000000" stroke-width="8" stroke-opacity="1"></use></g></g><g><use xlink:href="#b4CPgorQF4" opacity="1" fill="#1a374b" fill-opacity="1"></use></g><g><g><use xlink:href="#d1Fq0mzX" opacity="1" fill-opacity="0" stroke="#000000" stroke-width="7" stroke-opacity="1"></use></g></g><g><g><use xlink:href="#e6ZAZjsaT" opacity="1" fill-opacity="0" stroke="#000000" stroke-width="7" stroke-opacity="1"></use></g></g><g><g><use xlink:href="#c1RU7AELm" opacity="1" fill-opacity="0" stroke="#000000" stroke-width="7" stroke-opacity="1"></use></g></g><g><use xlink:href="#a3zkSEg5gj" opacity="1" fill="#773d4c" fill-opacity="1"></use></g><g><g><use xlink:href="#bf0GEPRAc" opacity="1" fill-opacity="0" stroke="#000000" stroke-width="7" stroke-opacity="1"></use></g></g><g><g><use xlink:href="#afRM52XPk" opacity="1" fill-opacity="0" stroke="#000000" stroke-width="7" stroke-opacity="1"></use></g></g><g><g><use xlink:href="#b3UQVyAR5G" opacity="1" fill-opacity="0" stroke="#000000" stroke-width="7" stroke-opacity="1"></use></g></g><g><g><use xlink:href="#btOA580fy" opacity="1" fill-opacity="0" stroke="#000000" stroke-width="7" stroke-opacity="1"></use></g></g><g><g><use xlink:href="#g34qFfBIDw" opacity="1" fill-opacity="0" stroke="#000000" stroke-width="7" stroke-opacity="1"></use></g></g><g><g><use xlink:href="#b2fJ32k1rm" opacity="1" fill-opacity="0" stroke="#000000" stroke-width="7" stroke-opacity="1"></use></g></g><g><use xlink:href="#a76QWlISC" opacity="1" fill="#753042" fill-opacity="1"></use></g><g><g><use xlink:href="#gaQmYwgtp" opacity="1" fill-opacity="0" stroke="#000000" stroke-width="6" stroke-opacity="1"></use></g></g><g><g><use xlink:href="#a3c85QEvQ3" opacity="1" fill-opacity="0" stroke="#000000" stroke-width="6" stroke-opacity="1"></use></g></g><g><g><use xlink:href="#aJRU6Mrq7" opacity="1" fill-opacity="0" stroke="#000000" stroke-width="6" stroke-opacity="1"></use></g></g><g><g><use xlink:href="#f7nf7SypeE" opacity="1" fill-opacity="0" stroke="#000000" stroke-width="6" stroke-opacity="1"></use></g></g><g><g><use xlink:href="#e3F9sqBRms" opacity="1" fill-opacity="0" stroke="#000000" stroke-width="6" stroke-opacity="1"></use></g></g><g><g><use xlink:href="#a3hcQnzdMD" opacity="1" fill-opacity="0" stroke="#000000" stroke-width="6" stroke-opacity="1"></use></g></g><g><g><use xlink:href="#f45WgR1u3X" opacity="1" fill-opacity="0" stroke="#000000" stroke-width="6" stroke-opacity="1"></use></g></g><g><g><use xlink:href="#a4k4SoU3K" opacity="1" fill-opacity="0" stroke="#000000" stroke-width="6" stroke-opacity="1"></use></g></g><g><g><use xlink:href="#d165VHb0zA" opacity="1" fill-opacity="0" stroke="#000000" stroke-width="6" stroke-opacity="1"></use></g></g><g><g><use xlink:href="#b2xKhJOsid" opacity="1" fill-opacity="0" stroke="#000000" stroke-width="6" stroke-opacity="1"></use></g></g><g><g><use xlink:href="#dVdTHCpcU" opacity="1" fill-opacity="0" stroke="#000000" stroke-width="6" stroke-opacity="1"></use></g></g><g><g><use xlink:href="#bjfmfc0PE" opacity="1" fill-opacity="0" stroke="#000000" stroke-width="6" stroke-opacity="1"></use></g></g><g><g><use xlink:href="#i7NoQ5i33" opacity="1" fill-opacity="0" stroke="#000000" stroke-width="6" stroke-opacity="1"></use></g></g><g><g><use xlink:href="#arXysZ6qY" opacity="1" fill-opacity="0" stroke="#000000" stroke-width="6" stroke-opacity="1"></use></g></g><g><g><use xlink:href="#i1HiJEO5S0" opacity="1" fill-opacity="0" stroke="#000000" stroke-width="6" stroke-opacity="1"></use></g></g><g><g><use xlink:href="#bO31M7dQm" opacity="1" fill-opacity="0" stroke="#000000" stroke-width="6" stroke-opacity="1"></use></g></g><g><g><use xlink:href="#d1VxfX6Pot" opacity="1" fill-opacity="0" stroke="#000000" stroke-width="6" stroke-opacity="1"></use></g></g><g><g><use xlink:href="#a67VWj4pzL" opacity="1" fill-opacity="0" stroke="#000000" stroke-width="6" stroke-opacity="1"></use></g></g><g><g><use xlink:href="#d1k4JjMr2G" opacity="1" fill-opacity="0" stroke="#000000" stroke-width="6" stroke-opacity="1"></use></g></g><g><g><use xlink:href="#bp52M6zNx" opacity="1" fill-opacity="0" stroke="#000000" stroke-width="6" stroke-opacity="1"></use></g></g><g><g><use xlink:href="#e2FIw40pl9" opacity="1" fill-opacity="0" stroke="#000000" stroke-width="6" stroke-opacity="1"></use></g></g><g><g><use xlink:href="#bKMTqMkh" opacity="1" fill-opacity="0" stroke="#000000" stroke-width="6" stroke-opacity="1"></use></g></g></g></svg>