<?xml version="1.0" encoding="UTF-8" standalone="no"?>
<!DOCTYPE svg PUBLIC "-//W3C//DTD SVG 1.1//EN" "http://www.w3.org/Graphics/SVG/1.1/DTD/svg11.dtd">
<svg version="1.1" xmlns="http://www.w3.org/2000/svg" xmlns:xlink="http://www.w3.org/1999/xlink" preserveAspectRatio="xMidYMid meet" viewBox="139.57558139534882 213.50580188839936 360.8488372093023 243.71511627906986" width="352.85" height="236.72"><defs><path d="M489.09 217.51C493.14 217.51 496.42 220.79 496.42 224.84C496.42 269.44 496.42 395.92 496.42 440.52C496.42 444.57 493.14 447.85 489.09 447.85C419.99 447.85 220.01 447.85 150.91 447.85C146.86 447.85 143.58 444.57 143.58 440.52C143.58 395.92 143.58 269.44 143.58 224.84C143.58 220.79 146.86 217.51 150.91 217.51C220.01 217.51 419.99 217.51 489.09 217.51Z" id="j20cBt98We"></path><path d="M311.54 406.19L311.54 406.19L311.54 454.22L311.54 454.22L311.54 406.19Z" id="jBPVIYBwL"></path><path d="M279.91 379.92L241.37 344.64L279.91 311.31" id="a9h1sLbntQ"></path><path d="M360.09 379.92L398.63 344.64L360.09 311.31" id="a2jYHT4pSJ"></path><path d="M328.34 311.31L304.62 379.92" id="bbkkyk0g1"></path><path d="M496.42 261.12L143.58 261.12" id="h1WmGqQ0df"></path><path d="M170.04 238.41C170.04 241.14 167.49 243.37 164.35 243.37C161.21 243.37 158.66 241.14 158.66 238.41C158.66 235.67 161.21 233.45 164.35 233.45C167.49 233.45 170.04 235.67 170.04 238.41Z" id="d27eyEwF8"></path><path d="M185.97 238.41C185.97 241.14 183.42 243.37 180.28 243.37C177.14 243.37 174.59 241.14 174.59 238.41C174.59 235.67 177.14 233.45 180.28 233.45C183.42 233.45 185.97 235.67 185.97 238.41Z" id="aD4gvWD90"></path><path d="M201.9 238.41C201.9 241.14 199.35 243.37 196.21 243.37C193.07 243.37 190.52 241.14 190.52 238.41C190.52 235.67 193.07 233.45 196.21 233.45C199.35 233.45 201.9 235.67 201.9 238.41Z" id="a1lrHfeKdH"></path></defs><g><g><g><use xlink:href="#j20cBt98We" opacity="1" fill-opacity="0" stroke="#000000" stroke-width="8" stroke-opacity="1"></use></g></g><g><use xlink:href="#jBPVIYBwL" opacity="1" fill="#1a374b" fill-opacity="1"></use></g><g><g><use xlink:href="#a9h1sLbntQ" opacity="1" fill-opacity="0" stroke="#000000" stroke-width="7" stroke-opacity="1"></use></g></g><g><g><use xlink:href="#a2jYHT4pSJ" opacity="1" fill-opacity="0" stroke="#000000" stroke-width="7" stroke-opacity="1"></use></g></g><g><g><use xlink:href="#bbkkyk0g1" opacity="1" fill-opacity="0" stroke="#000000" stroke-width="7" stroke-opacity="1"></use></g></g><g><g><use xlink:href="#h1WmGqQ0df" opacity="1" fill-opacity="0" stroke="#000000" stroke-width="7" stroke-opacity="1"></use></g></g><g><use xlink:href="#d27eyEwF8" opacity="1" fill="#000000" fill-opacity="1"></use></g><g><use xlink:href="#aD4gvWD90" opacity="1" fill="#000000" fill-opacity="1"></use></g><g><use xlink:href="#a1lrHfeKdH" opacity="1" fill="#000000" fill-opacity="1"></use></g></g></svg>